<?xml version="1.0" encoding="UTF-8"?>
<svg xmlns="http://www.w3.org/2000/svg" xmlns:xlink="http://www.w3.org/1999/xlink" width="3000" height="3000" viewBox="0 0 3000 3000">

<path fill-rule="nonzero" fill="rgb(87.889099%, 93.359375%, 97.65625%)" fill-opacity="1" d="M 183.480469 2375.160156 C 183.480469 2375.160156 142.113281 1847.46875 313.445312 1635.730469 C 481.09375 1428.539062 573.601562 1643.03125 671.5625 1341.398438 C 622.058594 467.351562 1188.011719 1121.75 1502.191406 628.910156 C 1816.378906 136.070312 2387.429688 590.410156 2323.511719 952.210938 C 2259.589844 1314 2429.429688 1253.960938 2633.539062 1418.601562 C 2837.648438 1583.25 2793.328125 2412.355469 2820.910156 2524.273438 Z M 183.480469 2375.160156 "/>
<path fill-rule="nonzero" fill="rgb(82.03125%, 90.234375%, 96.484375%)" fill-opacity="1" d="M 2107.320312 811.921875 C 2107.320312 930.230469 2011.410156 1026.128906 1893.101562 1026.128906 C 1836.289062 1026.128906 1781.800781 1003.570312 1741.628906 963.390625 C 1701.449219 923.21875 1678.890625 868.730469 1678.890625 811.921875 C 1678.890625 693.609375 1774.789062 597.699219 1893.101562 597.699219 C 2011.410156 597.699219 2107.320312 693.609375 2107.320312 811.921875 Z M 2107.320312 811.921875 "/>
<path fill-rule="nonzero" fill="rgb(82.8125%, 93.359375%, 97.264099%)" fill-opacity="1" d="M 1879.429688 679.589844 C 1874.820312 679.589844 1871.109375 683.308594 1871.109375 687.910156 L 1871.109375 819.140625 C 1869.28125 819.769531 1867.660156 821.03125 1866.609375 822.851562 C 1864.300781 826.839844 1865.660156 831.910156 1869.648438 834.21875 L 1871.109375 835.058594 L 1871.109375 836.738281 C 1871.109375 841.351562 1874.820312 845.070312 1879.429688 845.070312 C 1881.53125 845.070312 1883.441406 844.289062 1884.898438 843.019531 L 1998.539062 908.628906 C 2002.539062 910.941406 2007.609375 909.578125 2009.910156 905.589844 C 2012.21875 901.589844 2010.859375 896.519531 2006.871094 894.210938 L 1887.761719 825.441406 L 1887.761719 687.910156 C 1887.761719 683.308594 1884.050781 679.589844 1879.429688 679.589844 Z M 1879.429688 679.589844 "/>
<path fill-rule="nonzero" fill="rgb(44.700623%, 69.334412%, 90.234375%)" fill-opacity="1" d="M 183.480469 2375.160156 C 183.480469 2375.160156 1945.878906 2359.292969 2820.910156 2375.160156 L 2819.410156 2587.371094 L 183.480469 2587.371094 Z M 183.480469 2375.160156 "/>
<path fill-rule="nonzero" fill="rgb(97.264099%, 75.389099%, 61.521912%)" fill-opacity="1" d="M 1885.558594 1659.25 L 2094.078125 1657.25 L 2094.078125 1868.019531 L 1894.511719 1868.019531 Z M 1885.558594 1659.25 "/>
<path fill-rule="nonzero" fill="rgb(13.330078%, 46.263123%, 73.631287%)" fill-opacity="1" d="M 1467.378906 2062.617188 C 1409.941406 2206.835938 1563.109375 2419.523438 1563.128906 2419.492188 C 1567.949219 2288.394531 1652.921875 2224.929688 1739.691406 2165.824219 L 1787.160156 2518.996094 L 2525.738281 2517.238281 L 2536.289062 2434.589844 L 2788.53125 2367.765625 C 2786.359375 1907.53125 2479.410156 1695.570312 2210.128906 1668.769531 C 1932.949219 1990.398438 1898.269531 1715.511719 1885.558594 1659.25 C 1615.410156 1691.921875 1547.03125 1892.429688 1467.378906 2062.617188 Z M 1467.378906 2062.617188 "/>
<path fill-rule="nonzero" fill="rgb(9.008789%, 31.762695%, 50.584412%)" fill-opacity="1" d="M 2369.75 1975.109375 L 2121.511719 1988.011719 L 2024.128906 2471.714844 L 2226.140625 2471.714844 L 2331.78125 2015.367188 L 2364.890625 1986.300781 Z M 2369.75 1975.109375 "/>
<path fill-rule="nonzero" fill="rgb(9.008789%, 31.762695%, 50.584412%)" fill-opacity="1" d="M 2620.679688 2258.515625 C 2714.660156 2254.722656 2791.859375 2272.957031 2788.53125 2367.765625 L 2563.648438 2286.890625 Z M 2620.679688 2258.515625 "/>
<path fill-rule="nonzero" fill="rgb(100%, 100%, 100%)" fill-opacity="1" d="M 2160.238281 1986.171875 L 2055.460938 2522.820312 L 2572.070312 2517.101562 L 2675.109375 1958.980469 Z M 2160.238281 1986.171875 "/>
<path fill-rule="nonzero" fill="rgb(92.576599%, 92.576599%, 92.576599%)" fill-opacity="1" d="M 2617.449219 2281.761719 C 2554 2256.140625 2347.589844 2319.917969 2460.230469 2387.101562 C 2478.039062 2397.726562 2452.859375 2415.789062 2467.121094 2437.28125 C 2482.71875 2460.796875 2510.480469 2470.160156 2517.480469 2477.425781 C 2525.121094 2485.351562 2576.460938 2491.765625 2576.460938 2491.765625 C 2574.628906 2454.847656 2650.011719 2448.261719 2642.449219 2420.113281 C 2637.46875 2411.410156 2572.070312 2336.761719 2572.070312 2336.761719 L 2507.53125 2339.949219 Z M 2617.449219 2281.761719 "/>
<path fill-rule="nonzero" fill="rgb(97.264099%, 75.389099%, 61.521912%)" fill-opacity="1" d="M 1838.160156 1448.058594 L 1864.539062 1448.058594 C 1908.378906 1448.058594 1943.671875 1483.351562 1943.671875 1527.191406 C 1943.671875 1571.03125 1908.378906 1606.320312 1864.539062 1606.320312 L 1838.160156 1606.320312 C 1794.320312 1606.320312 1759.03125 1571.03125 1759.03125 1527.191406 C 1759.03125 1483.351562 1794.320312 1448.058594 1838.160156 1448.058594 Z M 1838.160156 1448.058594 "/>
<path fill-rule="nonzero" fill="rgb(100%, 100%, 100%)" fill-opacity="1" d="M 1885.558594 1659.25 C 1872.769531 1665.640625 1845.148438 1822.140625 1854.640625 1868.371094 C 1877.109375 1856.710938 1953.96875 1819.148438 1975.949219 1820.140625 C 1923.980469 1771.660156 1899.910156 1725.679688 1885.558594 1659.25 Z M 1885.558594 1659.25 "/>
<path fill-rule="nonzero" fill="rgb(100%, 100%, 100%)" fill-opacity="1" d="M 2211.890625 1667.890625 C 2204.828125 1678.558594 2084.058594 1802.050781 1989.011719 1822.738281 C 2011.71875 1823.730469 2114.589844 1846.429688 2143.320312 1896.148438 C 2194.589844 1848.738281 2208.480469 1735.421875 2211.890625 1667.890625 Z M 2211.890625 1667.890625 "/>
<path fill-rule="nonzero" fill="rgb(92.1875%, 46.655273%, 36.473083%)" fill-opacity="1" d="M 2027.941406 1809.550781 C 2019.808594 1814.429688 1913 1744.339844 1885.558594 1659.25 C 1986.230469 1719.371094 2085.199219 1777.289062 2085.199219 1777.289062 C 2081.929688 1777.761719 2082.808594 1782.269531 2027.941406 1809.550781 Z M 2027.941406 1809.550781 "/>
<path fill-rule="nonzero" fill="rgb(97.264099%, 75.389099%, 61.521912%)" fill-opacity="1" d="M 1919.058594 1257.089844 C 1982.050781 1256.660156 2146.871094 1231.179688 2184.738281 1275.460938 C 2210.121094 1305.148438 2209 1388.679688 2212.101562 1430.789062 L 2219.460938 1530.75 C 2227.191406 1635.679688 2221.390625 1714.261719 2129.148438 1764.871094 C 2024.558594 1822.25 1859.878906 1679.730469 1840.648438 1558.660156 L 1824.488281 1456.929688 C 1804.890625 1333.550781 1728.398438 1258.390625 1919.058594 1257.089844 Z M 1919.058594 1257.089844 "/>
<path fill-rule="nonzero" fill="rgb(92.1875%, 46.655273%, 36.473083%)" fill-opacity="1" d="M 2215.398438 1457.289062 C 2186.410156 1457.519531 2122.140625 1464.359375 1993.949219 1418.449219 L 2036.570312 1458.921875 C 1986.160156 1458.269531 1940.589844 1441.660156 1888.289062 1406.378906 C 1894.109375 1433.03125 1901.320312 1448.058594 1918.019531 1468.769531 C 1857.609375 1452.058594 1831.148438 1399.800781 1797.859375 1350.261719 C 1797.859375 1350.261719 1901.96875 1290.429688 1905.691406 1291.671875 C 1909.429688 1292.910156 2011.390625 1301.621094 2026.308594 1310.941406 C 2041.230469 1320.269531 2155.628906 1378.089844 2158.121094 1378.089844 C 2160.609375 1378.089844 2212.101562 1430.789062 2212.101562 1430.789062 Z M 2215.398438 1457.289062 "/>
<path fill-rule="nonzero" fill="rgb(5.883789%, 14.109802%, 21.556091%)" fill-opacity="1" d="M 1894.429688 1330.238281 C 1992.398438 1440.859375 2144.390625 1438.390625 2230.910156 1439.671875 C 2272.859375 1194.21875 2037.078125 1064.019531 1884.761719 1166.691406 C 1887.519531 1151.800781 1888.410156 1137.648438 1897.480469 1121.320312 C 1850.808594 1133.730469 1860.949219 1172.660156 1861.019531 1181.640625 C 1845.371094 1178.371094 1827.738281 1163.519531 1786.289062 1199.230469 C 1805.148438 1196.761719 1827.878906 1187.039062 1840.800781 1195.710938 C 1740.140625 1278.410156 1783.378906 1349.910156 1794.191406 1461.25 C 1829.769531 1443.109375 1843.039062 1522.578125 1846.070312 1561.480469 C 1856.03125 1489.699219 1842.101562 1444.308594 1832 1368.050781 C 1834.628906 1411.28125 1858.308594 1424.171875 1889.160156 1437.511719 C 1889.160156 1437.511719 1871.570312 1426.738281 1871.570312 1397.941406 L 1871.570312 1368.050781 C 1905.359375 1418.539062 1942.140625 1417.359375 2002.578125 1433.109375 C 1954.71875 1409.460938 1920.25 1375.929688 1894.429688 1330.238281 Z M 1894.429688 1330.238281 "/>
<path fill-rule="nonzero" fill="rgb(9.008789%, 31.762695%, 50.584412%)" fill-opacity="1" d="M 1650.441406 2233.808594 C 1573.660156 2315.738281 1641.71875 2359.765625 1647.160156 2415.183594 C 1623.261719 2429.058594 1604 2437.992188 1563.128906 2419.492188 C 1569.710938 2273.101562 1629.46875 2241.183594 1650.441406 2233.808594 Z M 1650.441406 2233.808594 "/>
<path fill-rule="nonzero" fill="rgb(9.008789%, 31.762695%, 50.584412%)" fill-opacity="1" d="M 1766.21875 1916.699219 C 1743.480469 2116.894531 1754.019531 2350.15625 1786.558594 2456.671875 L 1702.390625 2265.921875 C 1708.5 2095.046875 1712.75 2071.070312 1766.21875 1916.699219 Z M 1766.21875 1916.699219 "/>
<path fill-rule="nonzero" fill="rgb(97.264099%, 75.389099%, 61.521912%)" fill-opacity="1" d="M 1701.480469 2188.484375 C 1701.480469 2188.484375 1907.558594 2322.300781 1908.808594 2332.347656 C 1910.050781 2342.398438 1925.578125 2361.972656 1898.21875 2376.03125 C 1873.390625 2388.789062 1880.480469 2392.019531 1846.628906 2395.867188 C 1813.570312 2399.621094 1776.71875 2441.320312 1776.230469 2437.691406 C 1775.75 2434.058594 1647.160156 2415.183594 1647.160156 2415.183594 C 1574.859375 2338.800781 1597.589844 2265.441406 1701.480469 2188.484375 Z M 1701.480469 2188.484375 "/>
<path fill-rule="nonzero" fill="rgb(60.351562%, 37.646484%, 36.083984%)" fill-opacity="1" d="M 1703.769531 2261.164062 C 1702.519531 2260.453125 1700.921875 2260.890625 1700.210938 2262.148438 C 1699.5 2263.402344 1699.941406 2264.996094 1701.191406 2265.707031 L 1893.371094 2374.820312 C 1894.621094 2375.527344 1896.210938 2375.089844 1896.921875 2373.835938 C 1897.628906 2372.582031 1897.191406 2370.992188 1895.941406 2370.277344 Z M 1703.769531 2261.164062 "/>
<path fill-rule="nonzero" fill="rgb(60.351562%, 37.646484%, 36.083984%)" fill-opacity="1" d="M 1692.878906 2342.308594 C 1691.460938 2342.066406 1690.109375 2343.023438 1689.871094 2344.445312 C 1689.628906 2345.863281 1690.578125 2347.210938 1692 2347.457031 C 1692.269531 2347.5 1695.628906 2348.410156 1700.199219 2349.804688 C 1704.769531 2351.199219 1710.929688 2353.132812 1718.109375 2355.417969 C 1732.488281 2359.984375 1750.980469 2365.957031 1769.25 2371.894531 C 1805.789062 2383.769531 1841.421875 2395.488281 1841.421875 2395.488281 C 1842.789062 2395.9375 1844.269531 2395.191406 1844.71875 2393.820312 C 1845.160156 2392.453125 1844.421875 2390.980469 1843.058594 2390.527344 C 1843.058594 2390.527344 1807.410156 2378.808594 1770.859375 2366.929688 C 1752.589844 2360.992188 1734.089844 2355.011719 1719.699219 2350.4375 C 1712.5 2348.152344 1706.328125 2346.214844 1701.71875 2344.808594 C 1697.109375 2343.402344 1694.429688 2342.574219 1692.878906 2342.308594 Z M 1692.878906 2342.308594 "/>
<path fill-rule="nonzero" fill="rgb(60.351562%, 37.646484%, 36.083984%)" fill-opacity="1" d="M 1689.261719 2393.722656 C 1687.851562 2393.421875 1686.460938 2394.320312 1686.160156 2395.730469 C 1685.859375 2397.140625 1686.75 2398.527344 1688.160156 2398.832031 L 1799.300781 2422.671875 C 1800.710938 2422.972656 1802.101562 2422.074219 1802.398438 2420.664062 C 1802.699219 2419.253906 1801.808594 2417.867188 1800.390625 2417.566406 Z M 1689.261719 2393.722656 "/>
<path fill-rule="nonzero" fill="rgb(0%, 0%, 0%)" fill-opacity="1" d="M 1938.660156 2336.160156 C 1938.609375 2336.199219 1938.570312 2336.234375 1938.519531 2336.273438 C 1937.660156 2337.007812 1936.789062 2337.761719 1935.929688 2338.527344 C 1935.070312 2339.292969 1934.210938 2340.074219 1933.359375 2340.867188 C 1932.5 2341.65625 1931.640625 2342.460938 1930.800781 2343.273438 C 1929.941406 2344.089844 1929.101562 2344.914062 1928.261719 2345.746094 C 1926.578125 2347.414062 1924.921875 2349.113281 1923.28125 2350.832031 C 1921.640625 2352.550781 1920.03125 2354.292969 1918.449219 2356.035156 C 1916.871094 2357.777344 1915.320312 2359.527344 1913.820312 2361.265625 C 1912.308594 2363.003906 1910.839844 2364.734375 1909.410156 2366.4375 C 1907.988281 2368.140625 1906.609375 2369.824219 1905.289062 2371.464844 C 1903.96875 2373.105469 1902.691406 2374.707031 1901.480469 2376.257812 C 1900.980469 2376.886719 1900.550781 2377.464844 1900.070312 2378.074219 C 1903.039062 2380.5625 1910.511719 2384.863281 1928.699219 2388.402344 C 1956.058594 2393.726562 1970.359375 2406.484375 1963.519531 2388.402344 C 1958.679688 2375.613281 1945.800781 2350.058594 1938.660156 2336.160156 Z M 1938.660156 2336.160156 "/>
<path fill-rule="nonzero" fill="rgb(100%, 100%, 100%)" fill-opacity="1" d="M 1744.128906 2148.738281 L 1703.878906 2186.246094 L 1898.21875 2376.03125 C 1898.21875 2376.03125 1898.578125 2376.824219 1900.070312 2378.074219 C 1900.550781 2377.464844 1900.980469 2376.886719 1901.480469 2376.257812 C 1902.691406 2374.707031 1903.96875 2373.105469 1905.289062 2371.464844 C 1906.609375 2369.824219 1907.988281 2368.140625 1909.410156 2366.4375 C 1910.839844 2364.734375 1912.308594 2363.003906 1913.820312 2361.265625 C 1915.320312 2359.527344 1916.871094 2357.777344 1918.449219 2356.035156 C 1920.03125 2354.292969 1921.640625 2352.550781 1923.28125 2350.832031 C 1924.921875 2349.113281 1926.578125 2347.414062 1928.261719 2345.746094 C 1929.101562 2344.914062 1929.941406 2344.089844 1930.800781 2343.273438 C 1931.640625 2342.460938 1932.5 2341.65625 1933.359375 2340.867188 C 1934.210938 2340.074219 1935.070312 2339.292969 1935.929688 2338.527344 C 1936.789062 2337.761719 1937.660156 2337.011719 1938.519531 2336.273438 C 1938.570312 2336.234375 1938.609375 2336.199219 1938.660156 2336.160156 C 1935.699219 2330.410156 1933.710938 2326.605469 1933.710938 2326.605469 Z M 1744.128906 2148.738281 "/>
<path fill-rule="nonzero" fill="rgb(0%, 0%, 0%)" fill-opacity="1" d="M 1700.558594 2107.855469 L 1662.601562 2145.929688 L 1703.878906 2186.246094 L 1744.128906 2148.738281 Z M 1700.558594 2107.855469 "/>
<path fill-rule="nonzero" fill="rgb(97.264099%, 75.389099%, 61.521912%)" fill-opacity="1" d="M 1810.230469 2210.757812 C 1810.230469 2210.757812 1838.761719 2209.269531 1854.300781 2221.082031 C 1869.839844 2232.898438 1925.199219 2315.609375 1927.550781 2327.042969 C 1932.640625 2351.796875 1901.859375 2357.292969 1892.921875 2344.21875 C 1880.128906 2324.941406 1874.898438 2305.476562 1810.230469 2210.757812 Z M 1810.230469 2210.757812 "/>
<path fill-rule="nonzero" fill="rgb(97.264099%, 75.389099%, 61.521912%)" fill-opacity="1" d="M 2473.25 2333.546875 C 2446.75 2359.820312 2465.179688 2373.699219 2488.738281 2389.714844 C 2477.898438 2407.207031 2465.910156 2430.136719 2517.769531 2439.261719 C 2503.761719 2468.082031 2542.699219 2485.089844 2594.019531 2495.230469 C 2744.878906 2565.59375 2798.339844 2506.128906 2793.328125 2412.355469 C 2797.628906 2235.277344 2496.859375 2269.5625 2473.25 2333.546875 Z M 2473.25 2333.546875 "/>
<path fill-rule="nonzero" fill="rgb(68.164062%, 45.092773%, 41.184998%)" fill-opacity="1" d="M 2486.148438 2333.574219 C 2484.699219 2333.5625 2483.519531 2334.726562 2483.519531 2336.171875 C 2483.511719 2337.613281 2484.671875 2338.789062 2486.109375 2338.796875 L 2657.980469 2339.945312 C 2659.429688 2339.957031 2660.601562 2338.796875 2660.609375 2337.355469 C 2660.621094 2335.914062 2659.460938 2334.734375 2658.019531 2334.722656 Z M 2486.148438 2333.574219 "/>
<path fill-rule="nonzero" fill="rgb(68.164062%, 45.092773%, 41.184998%)" fill-opacity="1" d="M 2684.390625 2387.101562 L 2503.230469 2387.984375 C 2501.800781 2387.992188 2500.628906 2389.164062 2500.640625 2390.605469 C 2500.640625 2392.046875 2501.820312 2393.214844 2503.261719 2393.207031 L 2684.421875 2392.324219 C 2685.859375 2392.316406 2687.019531 2391.144531 2687.019531 2389.703125 C 2687.011719 2388.261719 2685.839844 2387.097656 2684.390625 2387.101562 Z M 2684.390625 2387.101562 "/>
<path fill-rule="nonzero" fill="rgb(68.164062%, 45.092773%, 41.184998%)" fill-opacity="1" d="M 2688.140625 2437.277344 L 2535.289062 2439.542969 C 2533.839844 2439.566406 2532.691406 2440.753906 2532.71875 2442.195312 C 2532.730469 2443.636719 2533.921875 2444.789062 2535.359375 2444.769531 L 2688.21875 2442.503906 C 2689.660156 2442.480469 2690.808594 2441.292969 2690.789062 2439.851562 C 2690.769531 2438.410156 2689.578125 2437.257812 2688.140625 2437.277344 Z M 2688.140625 2437.277344 "/>
<path fill-rule="nonzero" fill="rgb(68.164062%, 45.092773%, 41.184998%)" fill-opacity="1" d="M 2707.738281 2491.765625 L 2604.558594 2492.191406 C 2603.109375 2492.199219 2601.949219 2493.375 2601.960938 2494.816406 C 2601.96875 2496.257812 2603.140625 2497.421875 2604.578125 2497.414062 L 2707.761719 2496.992188 C 2709.199219 2496.984375 2710.359375 2495.8125 2710.359375 2494.371094 C 2710.359375 2492.925781 2709.179688 2491.761719 2707.738281 2491.765625 Z M 2707.738281 2491.765625 "/>
<path fill-rule="nonzero" fill="rgb(10.984802%, 37.646484%, 59.568787%)" fill-opacity="1" d="M 1866.011719 2517.101562 L 2016.96875 2522.304688 L 2036.351562 2518.996094 L 2055.460938 2522.820312 L 2415.648438 2537.890625 L 2428.570312 2517.101562 L 2032.53125 2469.230469 L 1942.378906 2485.394531 Z M 1866.011719 2517.101562 "/>
<path fill-rule="nonzero" fill="rgb(96.09375%, 96.484375%, 91.014099%)" fill-opacity="1" d="M 2042.480469 2479.175781 C 2042.480469 2479.175781 2049.320312 2492.941406 2061.128906 2494.804688 C 2072.941406 2496.671875 2427.328125 2517.101562 2427.328125 2517.101562 C 2427.328125 2517.101562 2439.140625 2510.265625 2430.441406 2499.695312 C 2421.730469 2489.125 2383.808594 2471.714844 2383.808594 2471.714844 C 2287.578125 2335.226562 2010.589844 2377.378906 2042.480469 2479.175781 Z M 2042.480469 2479.175781 "/>
<path fill-rule="nonzero" fill="rgb(80.46875%, 82.421875%, 54.881287%)" fill-opacity="1" d="M 2049.320312 2455.550781 C 2119.699219 2377.886719 2253.449219 2386.171875 2370.25 2477.425781 C 2265.769531 2422.601562 2168.71875 2379.011719 2049.320312 2455.550781 Z M 2049.320312 2455.550781 "/>
<path fill-rule="nonzero" fill="rgb(80.46875%, 82.421875%, 54.881287%)" fill-opacity="1" d="M 2061.128906 2472.339844 C 2137.621094 2410.136719 2266.238281 2457.605469 2339.691406 2479.328125 C 2259.519531 2439.761719 2129.25 2384.535156 2061.128906 2472.339844 Z M 2061.128906 2472.339844 "/>
<path fill-rule="nonzero" fill="rgb(80.46875%, 82.421875%, 54.881287%)" fill-opacity="1" d="M 2065.480469 2477.933594 C 2131.550781 2434.640625 2224.871094 2462.859375 2323.5 2489.125 C 2235.871094 2471.933594 2150.351562 2453.777344 2065.480469 2477.933594 Z M 2065.480469 2477.933594 "/>
<path fill-rule="nonzero" fill="rgb(96.09375%, 96.484375%, 91.014099%)" fill-opacity="1" d="M 1957.300781 2497.207031 C 1957.300781 2497.207031 2015.351562 2497.464844 2024.050781 2492.492188 C 2032.761719 2487.515625 2039.988281 2475.445312 2039.988281 2475.445312 C 2052.78125 2395.410156 1790.648438 2365.128906 1755.238281 2474.203125 C 1757.730469 2481.042969 1957.300781 2497.207031 1957.300781 2497.207031 Z M 1957.300781 2497.207031 "/>
<path fill-rule="nonzero" fill="rgb(80.46875%, 82.421875%, 54.881287%)" fill-opacity="1" d="M 1901.269531 2476.289062 C 1909.128906 2468.800781 1987.449219 2477.3125 1999.070312 2481.191406 C 1984.550781 2481.265625 1936.570312 2483.339844 1920.789062 2487.554688 Z M 1901.269531 2476.289062 "/>
<path fill-rule="nonzero" fill="rgb(80.46875%, 82.421875%, 54.881287%)" fill-opacity="1" d="M 2017.53125 2473.152344 C 1989.140625 2459.636719 1942.300781 2419.527344 1856.628906 2464.484375 C 1898.640625 2451.761719 1966.949219 2452.535156 2017.53125 2473.152344 Z M 2017.53125 2473.152344 "/>
<path fill-rule="nonzero" fill="rgb(80.46875%, 82.421875%, 54.881287%)" fill-opacity="1" d="M 2024.128906 2455.523438 C 1986.398438 2425.644531 1896.691406 2397.21875 1832.878906 2447.777344 C 1894.179688 2421.515625 1957.058594 2426.222656 2024.128906 2455.523438 Z M 2024.128906 2455.523438 "/>
<path fill-rule="nonzero" fill="rgb(10.205078%, 35.301208%, 56.443787%)" fill-opacity="1" d="M 1213.890625 2466.683594 L 1380.539062 2424.558594 L 1375.511719 2403.523438 L 995.828125 2392.382812 Z M 1213.890625 2466.683594 "/>
<path fill-rule="nonzero" fill="rgb(9.812927%, 34.104919%, 54.492188%)" fill-opacity="1" d="M 1351.359375 2226.894531 L 1574.691406 2226.894531 L 1545.679688 2466.683594 L 1383.011719 2466.683594 Z M 1351.359375 2226.894531 "/>
<path fill-rule="nonzero" fill="rgb(19.604492%, 55.271912%, 85.546875%)" fill-opacity="1" d="M 257.25 1868.371094 L 463.476562 2429.53125 L 1213.890625 2466.683594 L 1049.601562 1853.558594 Z M 257.25 1868.371094 "/>
<path fill-rule="nonzero" fill="rgb(13.330078%, 46.263123%, 73.631287%)" fill-opacity="1" d="M 1119.210938 2521.457031 L 1962.269531 2511.507812 L 1811.671875 2424.558594 L 1004.808594 2424.558594 C 1004.808594 2424.558594 1080.46875 2491.4375 1119.210938 2521.457031 Z M 1119.210938 2521.457031 "/>
<path fill-rule="nonzero" fill="rgb(10.984802%, 37.646484%, 59.568787%)" fill-opacity="1" d="M 1119.210938 2521.457031 L 1119.210938 2574.390625 L 1956.199219 2558.566406 L 1962.269531 2511.507812 Z M 1119.210938 2521.457031 "/>
<path fill-rule="nonzero" fill="rgb(100%, 100%, 100%)" fill-opacity="1" d="M 1004.808594 2424.558594 L 1004.808594 2481.191406 L 1119.210938 2574.390625 L 1119.210938 2521.457031 Z M 1004.808594 2424.558594 "/>
<path fill-rule="nonzero" fill="rgb(100%, 100%, 100%)" fill-opacity="1" d="M 1358.488281 2280.894531 L 1567.851562 2280.894531 L 1564.25 2313.199219 L 1362.441406 2313.199219 Z M 1358.488281 2280.894531 "/>
<path fill-rule="nonzero" fill="rgb(9.812927%, 34.104919%, 54.492188%)" fill-opacity="1" d="M 1413.820312 2117.175781 L 1451.449219 2117.175781 L 1470.109375 2170.371094 L 1432.480469 2170.371094 Z M 1413.820312 2117.175781 "/>
<path fill-rule="nonzero" fill="rgb(100%, 100%, 100%)" fill-opacity="1" d="M 1358.820312 2147.050781 L 1567.871094 2147.050781 L 1580.5 2182.148438 L 1345.550781 2182.148438 Z M 1358.820312 2147.050781 "/>
<path fill-rule="nonzero" fill="rgb(80.46875%, 82.421875%, 54.881287%)" fill-opacity="1" d="M 2395.609375 2486.90625 C 2431.941406 2493.234375 2431.808594 2513.683594 2392.96875 2510.207031 C 2416.859375 2504.445312 2416.109375 2500.71875 2395.609375 2486.90625 Z M 2395.609375 2486.90625 "/>
<path fill-rule="nonzero" fill="rgb(100%, 100%, 100%)" fill-opacity="1" d="M 1352.980469 2179.503906 L 1573.070312 2179.503906 C 1587.191406 2179.503906 1598.558594 2190.871094 1598.558594 2204.992188 C 1598.558594 2219.117188 1587.191406 2230.484375 1573.070312 2230.484375 L 1352.980469 2230.484375 C 1338.859375 2230.484375 1327.488281 2219.117188 1327.488281 2204.992188 C 1327.488281 2190.871094 1338.859375 2179.503906 1352.980469 2179.503906 Z M 1352.980469 2179.503906 "/>
<path fill-rule="nonzero" fill="rgb(9.008789%, 31.762695%, 50.584412%)" fill-opacity="1" d="M 2369.75 1975.109375 L 2451.949219 1970.769531 L 2323.511719 1842.851562 C 2343.699219 1885.171875 2358.949219 1939.589844 2369.75 1975.109375 Z M 2369.75 1975.109375 "/>
<path fill-rule="nonzero" fill="rgb(12.547302%, 43.920898%, 70.117188%)" fill-opacity="1" d="M 613.464844 2065.253906 C 606.054688 2065.113281 600.304688 2068.144531 598.296875 2074.171875 L 596.886719 2078.398438 C 593.3125 2089.117188 602.941406 2105.148438 618.480469 2114.339844 L 663.324219 2140.875 L 645.664062 2166.953125 C 639.546875 2175.988281 646.472656 2192 661.195312 2202.851562 L 666.996094 2207.128906 C 681.71875 2217.980469 698.496094 2219.445312 704.613281 2210.410156 L 726.421875 2178.203125 L 781.792969 2210.96875 C 797.332031 2220.160156 812.71875 2218.929688 816.292969 2208.207031 L 817.703125 2203.984375 C 821.277344 2193.265625 811.648438 2177.234375 796.109375 2168.039062 L 751.265625 2141.507812 L 768.925781 2115.429688 C 775.042969 2106.394531 768.117188 2090.382812 753.394531 2079.53125 L 747.59375 2075.253906 C 732.871094 2064.402344 716.09375 2062.9375 709.976562 2071.972656 L 688.167969 2104.175781 L 632.792969 2071.414062 C 625.996094 2067.394531 619.226562 2065.367188 613.464844 2065.253906 Z M 613.464844 2065.253906 "/>
<path fill-rule="nonzero" fill="rgb(100%, 100%, 100%)" fill-opacity="1" d="M 2087.421875 811.921875 C 2087.421875 863.449219 2066.949219 912.878906 2030.511719 949.320312 C 1994.058594 985.769531 1944.640625 1006.238281 1893.101562 1006.238281 C 1841.558594 1006.238281 1792.140625 985.769531 1755.691406 949.320312 C 1719.25 912.878906 1698.78125 863.449219 1698.78125 811.921875 C 1698.78125 760.378906 1719.25 710.949219 1755.691406 674.511719 C 1792.140625 638.070312 1841.558594 617.601562 1893.101562 617.601562 C 2000.421875 617.601562 2087.421875 704.601562 2087.421875 811.921875 Z M 2087.421875 811.921875 "/>
<path fill-rule="nonzero" fill="rgb(82.03125%, 90.234375%, 96.484375%)" fill-opacity="1" d="M 1880.699219 691.878906 C 1876.519531 691.878906 1873.148438 695.25 1873.148438 699.429688 L 1873.148438 818.460938 C 1871.488281 819.039062 1870.019531 820.179688 1869.070312 821.828125 C 1866.980469 825.449219 1868.210938 830.058594 1871.828125 832.148438 L 1873.148438 832.910156 L 1873.148438 834.429688 C 1873.148438 838.621094 1876.519531 841.988281 1880.699219 841.988281 C 1882.609375 841.988281 1884.339844 841.28125 1885.660156 840.128906 L 1988.75 899.648438 C 1992.371094 901.738281 1996.96875 900.511719 1999.058594 896.890625 C 2001.160156 893.261719 1999.921875 888.660156 1996.300781 886.570312 L 1888.25 824.191406 L 1888.25 699.429688 C 1888.25 695.25 1884.890625 691.878906 1880.699219 691.878906 Z M 1880.699219 691.878906 "/>
<path fill-rule="nonzero" fill="rgb(10.984802%, 26.268005%, 40.380859%)" fill-opacity="1" d="M 2188.019531 1349.320312 C 2192.570312 1214.839844 2114.011719 1164.300781 1983.890625 1158.601562 C 2070.851562 1177.011719 2146.820312 1231.070312 2188.019531 1349.320312 Z M 2188.019531 1349.320312 "/>
<path fill-rule="nonzero" fill="rgb(5.883789%, 14.109802%, 21.556091%)" fill-opacity="1" d="M 1893.101562 1161.628906 C 1968.699219 1099.679688 2081.191406 1097.390625 2207.488281 1231.089844 C 2189.980469 1222.621094 2047.441406 1054 1897.070312 1165.820312 "/>
<path fill-rule="nonzero" fill="rgb(5.883789%, 14.109802%, 21.556091%)" fill-opacity="1" d="M 1872.070312 1185.328125 C 1804.871094 1203.550781 1793.128906 1216.351562 1773.21875 1277.960938 C 1793.089844 1216.660156 1831.890625 1195.910156 1872.070312 1185.328125 Z M 1872.070312 1185.328125 "/>
<path fill-rule="nonzero" fill="rgb(3.529358%, 7.835388%, 12.156677%)" fill-opacity="1" d="M 1952.898438 1345.621094 C 2023.738281 1408.570312 2086.121094 1414.179688 2177.558594 1418.601562 C 2105.109375 1402.859375 2025.46875 1375.210938 1952.898438 1345.621094 Z M 1952.898438 1345.621094 "/>
<path fill-rule="nonzero" fill="rgb(82.03125%, 90.234375%, 96.484375%)" fill-opacity="1" d="M 904.277344 1666.738281 L 1523.492188 1666.738281 L 1523.492188 1086.554688 L 904.277344 1086.554688 Z M 904.277344 1666.738281 "/>
<path fill-rule="nonzero" fill="rgb(100%, 100%, 100%)" fill-opacity="1" d="M 930.851562 1635.730469 L 1496.917969 1635.730469 L 1496.917969 1117.570312 L 930.851562 1117.570312 Z M 930.851562 1635.730469 "/>
<path fill-rule="nonzero" fill="rgb(82.03125%, 90.234375%, 96.484375%)" fill-opacity="1" d="M 1201.179688 1086.558594 L 1201.179688 1356.890625 L 930.851562 1356.890625 L 930.851562 1382.289062 L 1201.179688 1382.289062 L 1201.179688 1652.621094 L 1226.589844 1652.621094 L 1226.589844 1382.289062 L 1496.921875 1382.289062 L 1496.921875 1356.890625 L 1226.589844 1356.890625 L 1226.589844 1086.558594 Z M 1201.179688 1086.558594 "/>
</svg>
